HIERARCHY
ROOT Hips
{
	OFFSET 54.324100 -11.895816 96.858398
	CHANNELS 6 Xposition Yposition Zposition Xrotation Yrotation Zrotation
	JOINT spine
	{
		OFFSET 0.000000 -0.458068 7.965683
		CHANNELS 3 Xrotation Yrotation Zrotation
		JOINT spine1
		{
			OFFSET 0.000000 -0.000002 10.243103
			CHANNELS 3 Xrotation Yrotation Zrotation
			JOINT spine2
			{
				OFFSET 0.000000 -0.000001 9.814751
				CHANNELS 3 Xrotation Yrotation Zrotation
				JOINT Neck
				{
					OFFSET 0.000000 -1.201385 25.198601
					CHANNELS 3 Xrotation Yrotation Zrotation
					JOINT Head
					{
						OFFSET 0.000000 -0.000001 7.613144
						CHANNELS 3 Xrotation Yrotation Zrotation
						End Site
						{
							OFFSET 0.000000 6.077327 18.428101
						}
					}
				}
				JOINT RightShoulder
				{
					OFFSET -4.132702 0.575449 10.599205
					CHANNELS 3 Xrotation Yrotation Zrotation
					JOINT RightArm
					{
						OFFSET 0.000000 -0.000003 13.901794
						CHANNELS 3 Xrotation Yrotation Zrotation
						JOINT RightArmRoll
						{
							OFFSET 0.000000 -0.000001 7.017883
							CHANNELS 3 Xrotation Yrotation Zrotation
							JOINT RightForeArm
							{
								OFFSET 0.000000 -0.000003 20.440598
								CHANNELS 3 Xrotation Yrotation Zrotation
								JOINT RightForeArmRoll
								{
									OFFSET 0.000000 -0.000002 7.875168
									CHANNELS 3 Xrotation Yrotation Zrotation
									JOINT RightHand
									{
										OFFSET 0.000000 -0.000002 15.803696
										CHANNELS 3 Xrotation Yrotation Zrotation
										End Site
										{
											OFFSET 0.000000 0.000000 0.100006
										}
									}
								}
							}
						}
					}
				}
				JOINT LeftShoulder
				{
					OFFSET 4.132702 0.575449 10.599205
					CHANNELS 3 Xrotation Yrotation Zrotation
					JOINT LeftArm
					{
						OFFSET 0.000000 -0.000003 13.901794
						CHANNELS 3 Xrotation Yrotation Zrotation
						JOINT LeftArmRoll
						{
							OFFSET 0.000000 -0.000001 7.017883
							CHANNELS 3 Xrotation Yrotation Zrotation
							JOINT LeftForeArm
							{
								OFFSET 0.000000 -0.000003 20.440598
								CHANNELS 3 Xrotation Yrotation Zrotation
								JOINT LeftForeArmRoll
								{
									OFFSET 0.000000 -0.000002 7.875168
									CHANNELS 3 Xrotation Yrotation Zrotation
									JOINT LeftHand
									{
										OFFSET 0.000000 -0.000002 15.803696
										CHANNELS 3 Xrotation Yrotation Zrotation
										End Site
										{
											OFFSET 0.000000 0.000000 0.100006
										}
									}
								}
							}
						}
					}
				}
			}
		}
	}
	JOINT RightUpLeg
	{
		OFFSET -7.060482 1.086101 -1.294701
		CHANNELS 3 Xrotation Yrotation Zrotation
		JOINT RightUpLegRoll
		{
			OFFSET 0.000000 -0.000003 18.530800
			CHANNELS 3 Xrotation Yrotation Zrotation
			JOINT RightLeg
			{
				OFFSET 0.000000 0.000003 -22.947601
				CHANNELS 3 Xrotation Yrotation Zrotation
				JOINT RightLegRoll
				{
					OFFSET 0.000000 -0.000004 23.022598
					CHANNELS 3 Xrotation Yrotation Zrotation
					JOINT RightFoot
					{
						OFFSET 0.000000 -0.000003 19.162506
						CHANNELS 3 Xrotation Yrotation Zrotation
						JOINT RightToeBase
						{
							OFFSET 0.000000 -0.000003 16.018799
							CHANNELS 3 Xrotation Yrotation Zrotation
							End Site
							{
								OFFSET 0.006790 0.894205 7.757812
							}
						}
					}
				}
			}
		}
	}
	JOINT LeftUpLeg
	{
		OFFSET 7.060482 1.086101 -1.294701
		CHANNELS 3 Xrotation Yrotation Zrotation
		JOINT LeftUpLegRoll
		{
			OFFSET 0.000000 -0.000003 18.530899
			CHANNELS 3 Xrotation Yrotation Zrotation
			JOINT LeftLeg
			{
				OFFSET 0.000000 -0.000004 22.947502
				CHANNELS 3 Xrotation Yrotation Zrotation
				JOINT LeftLegRoll
				{
					OFFSET 0.000000 -0.000004 23.235504
					CHANNELS 3 Xrotation Yrotation Zrotation
					JOINT LeftFoot
					{
						OFFSET 0.000000 -0.000004 18.949600
						CHANNELS 3 Xrotation Yrotation Zrotation
						JOINT LeftToeBase
						{
							OFFSET 0.000000 -0.000002 16.018799
							CHANNELS 3 Xrotation Yrotation Zrotation
							End Site
							{
								OFFSET -0.030430 0.894204 7.757812
							}
						}
					}
				}
			}
		}
	}
}
MOTION
Frames: 10
Frame Time: 0.041667
52.589199 -12.360319 96.744194 -4.241530 0.060108 3.820708 -1.374416 0.429267 -0.418047 1.258614 0.864340 -0.828278 2.903692 0.854387 -0.838572 8.876518 37.175480 -26.254962 18.589275 -39.296698 -19.499090 -15.266485 -35.632670 -17.388577 -134.502080 -143.999417 -95.347890 -0.000003 0.000003 -0.000002 8.580328 9.280671 -1.061656 -0.000007 0.000001 -2.994868 -5.000185 -7.999938 0.000029 -1.810307 68.073599 3.139993 -55.865432 113.789094 52.116215 0.000001 0.000001 0.000000 8.745731 9.817742 -0.067569 -0.000005 -0.000008 2.999990 -5.000209 7.998863 -0.000127 2.939217 -178.332196 3.067748 -179.999991 0.000005 -1.144994 174.388335 -2.593526 -0.483740 -0.000004 0.000000 0.071830 69.397597 6.900580 2.090867 25.456953 -7.355613 0.000000 5.094541 175.237792 -2.238071 -0.000005 -0.000004 -1.179099 -7.438387 2.138240 0.317126 -0.000008 -0.000001 -0.129346 69.985219 -6.872918 -2.107806 25.456953 7.355611 0.000002 
52.622700 -12.346119 96.728493 -4.242973 0.057442 3.840731 -1.372236 0.429936 -0.416699 1.262614 0.865648 -0.825238 2.907685 0.855721 -0.835547 8.912085 37.155365 -26.276894 18.664583 -39.322007 -19.474473 -15.288801 -35.581222 -17.417343 -134.500727 -143.823908 -96.044624 -0.000008 0.000005 -0.000002 7.424381 8.891294 -1.037152 -0.000009 0.000002 -2.995113 -5.000185 -7.999942 0.000028 -1.736388 68.089391 3.058931 -55.939622 113.761363 52.156732 0.000003 0.000001 -0.000000 8.669079 9.812564 -0.061553 -0.000003 -0.000008 2.999989 -5.000210 7.998863 -0.000127 2.941106 -178.327196 3.069430 -179.999991 0.000005 -1.144994 174.389455 -2.591546 -0.484492 -0.000005 0.000001 0.071996 69.392208 6.900585 2.090804 25.456952 -7.355615 0.000000 5.073967 175.243625 -2.230253 -0.000005 -0.000004 -1.179170 -7.466670 2.134612 0.317888 -0.000007 -0.000001 -0.129538 69.991257 -6.872883 -2.107828 25.456948 7.355614 0.000001 
52.627201 -12.348320 96.738403 -4.243941 0.054709 3.861349 -1.370078 0.430567 -0.415454 1.266596 0.866881 -0.822418 2.911667 0.856980 -0.832741 8.948308 37.136172 -26.299124 18.737939 -39.348074 -19.450398 -15.309707 -35.530258 -17.444235 -134.496151 -143.635545 -96.729139 -0.000007 0.000005 -0.000001 6.346721 8.496079 -1.024512 -0.000010 0.000001 -2.995701 -5.000186 -7.999941 0.000024 -1.661325 68.106070 2.976701 -56.017773 113.732567 52.199693 0.000002 0.000001 -0.000000 8.593126 9.806020 -0.055395 -0.000002 -0.000008 2.999989 -5.000215 7.998863 -0.000127 2.942253 -178.322210 3.070950 -179.999991 0.000005 -1.144994 174.390125 -2.588559 -0.485179 -0.000003 0.000001 0.072166 69.387250 6.900607 2.090615 25.456957 -7.355616 0.000001 5.053097 175.248461 -2.222843 -0.000005 -0.000004 -1.179239 -7.494383 2.131334 0.318682 -0.000008 -0.000001 -0.129715 69.996967 -6.872874 -2.107672 25.456952 7.355613 0.000001 
52.610298 -12.347915 96.730095 -4.244512 0.051917 3.882503 -1.367937 0.431150 -0.414335 1.270585 0.868022 -0.819872 2.915659 0.858144 -0.830208 8.985233 37.118212 -26.321722 18.809538 -39.375183 -19.426887 -15.328869 -35.480005 -17.468786 -134.484745 -143.433740 -97.394393 -0.000006 0.000006 -0.000003 5.357741 8.097980 -1.021510 -0.000009 0.000000 -2.996672 -5.000187 -7.999938 0.000026 -1.584974 68.123528 2.893140 -56.095801 113.703655 52.240504 0.000005 0.000001 -0.000000 8.518006 9.797900 -0.049083 -0.000002 -0.000008 2.999990 -5.000210 7.998864 -0.000127 2.942661 -178.317224 3.072329 -179.999991 0.000005 -1.146005 174.390193 -2.586574 -0.484981 -0.000004 0.000001 0.072338 69.382810 6.900619 2.090495 25.456957 -7.355615 0.000001 5.032364 175.254294 -2.215812 -0.000005 -0.000005 -1.179300 -7.520919 2.128547 0.319503 -0.000008 -0.000001 -0.129866 70.001837 -6.872841 -2.107764 25.456953 7.355611 0.000001 
52.628601 -12.344720 96.732689 -4.244737 0.049075 3.904171 -1.365797 0.431678 -0.413365 1.274597 0.869048 -0.817653 2.919670 0.859191 -0.828002 9.022908 37.101792 -26.344463 18.879299 -39.403044 -19.403755 -15.346002 -35.430916 -17.490631 -134.462615 -143.217729 -98.033131 -0.000006 0.000006 -0.000003 4.467762 7.699797 -1.025370 -0.000007 0.000002 -2.998080 -5.000185 -7.999941 0.000028 -1.507205 68.141751 2.808113 -56.175523 113.673991 52.280969 0.000002 0.000001 -0.000000 8.443913 9.787986 -0.042623 -0.000003 -0.000008 2.999990 -5.000211 7.998864 -0.000127 2.942316 -178.313221 3.073525 -179.999991 0.000005 -1.146005 174.389606 -2.583580 -0.485712 -0.000004 0.000001 0.072513 69.378992 6.900587 2.090426 25.456957 -7.355613 0.000001 5.012228 175.259130 -2.209440 -0.000005 -0.000004 -1.179359 -7.545685 2.126343 0.320339 -0.000007 -0.000001 -0.129977 70.005648 -6.872809 -2.107724 25.456953 7.355612 0.000001 
52.652401 -12.336819 96.734093 -4.244703 0.046191 3.926308 -1.363658 0.432137 -0.412566 1.278667 0.869943 -0.815819 2.923741 0.860104 -0.826178 9.061354 37.087090 -26.367372 18.947414 -39.431816 -19.381043 -15.360797 -35.383221 -17.509332 -134.425732 -142.986650 -98.637842 -0.000005 0.000005 -0.000001 3.687065 7.304124 -1.032825 -0.000009 -0.000000 -2.999992 -5.000182 -7.999942 0.000026 -1.427891 68.160760 2.721469 -56.256594 113.643413 52.320605 0.000003 0.000001 0.000000 8.370997 9.776061 -0.035986 -0.000005 -0.000008 2.999990 -5.000212 7.998864 -0.000127 2.941224 -178.308235 3.074658 -179.999991 0.000005 -1.146005 174.388130 -2.580584 -0.485484 -0.000004 0.000001 0.072688 69.375823 6.900619 2.090330 25.456959 -7.355615 0.000000 4.993125 175.262968 -2.203874 -0.000005 -0.000004 -1.179419 -7.568072 2.124865 0.321182 -0.000008 -0.000001 -0.130040 70.008073 -6.872772 -2.107767 25.456953 7.355611 0.000002 
52.650200 -12.334722 96.732590 -4.243900 0.043280 3.949311 -1.361598 0.432555 -0.411933 1.282618 0.870746 -0.814320 2.927691 0.860922 -0.824688 9.100445 37.074110 -26.390673 19.013628 -39.461561 -19.358996 -15.373072 -35.333477 -17.524589 -134.372087 -142.745763 -99.231782 -0.000005 0.000006 -0.000000 3.013832 6.882212 -1.041332 -0.000009 0.000002 -3.002677 -5.000184 -7.999938 0.000028 -1.347606 68.181038 2.633910 -56.340236 113.612574 52.360729 0.000003 0.000001 -0.000000 8.298677 9.762783 -0.029243 -0.000004 -0.000008 2.999990 -5.000210 7.998864 -0.000126 2.939129 -178.304247 3.075481 -179.999991 0.000005 -1.146005 174.386245 -2.578590 -0.486371 -0.000004 0.000001 0.072869 69.373084 6.900634 2.090203 25.456952 -7.355614 -0.000000 4.973544 175.267818 -2.198815 -0.000005 -0.000004 -1.179470 -7.589564 2.124035 0.322091 -0.000007 -0.000001 -0.130056 70.009658 -6.872749 -2.107764 25.456953 7.355611 0.000002 
52.666599 -12.337717 96.735001 -4.241912 0.040344 3.973522 -1.359687 0.432961 -0.411438 1.286309 0.871507 -0.813056 2.931383 0.861697 -0.823433 9.140022 37.062492 -26.414647 19.077427 -39.492366 -19.338057 -15.383205 -35.278487 -17.536683 -134.304783 -142.499534 -99.840352 -0.000008 0.000006 0.000000 2.434548 6.409079 -1.051140 -0.000009 -0.000000 -3.006302 -5.000188 -7.999939 0.000026 -1.266930 68.203271 2.546121 -56.431177 113.580862 52.406662 0.000003 0.000001 -0.000000 8.226359 9.748891 -0.022461 -0.000003 -0.000008 2.999990 -5.000214 7.998863 -0.000127 2.935824 -178.300230 3.075938 -179.999991 0.000005 -1.146005 174.384456 -2.575591 -0.486158 -0.000004 0.000001 0.073059 69.370434 6.900619 2.090065 25.456957 -7.355614 0.000001 4.951902 175.271629 -2.194226 -0.000005 -0.000004 -1.179518 -7.611927 2.123657 0.323112 -0.000007 -0.000001 -0.130050 70.011242 -6.872724 -2.107861 25.456950 7.355613 0.000001 
52.685200 -12.334316 96.734894 -4.238891 0.037372 3.998800 -1.357906 0.433352 -0.411065 1.289790 0.872228 -0.812007 2.934863 0.862430 -0.822393 9.180130 37.052110 -26.439186 19.139206 -39.524174 -19.317874 -15.391307 -35.219420 -17.545948 -134.227397 -142.246080 -100.459891 -0.000005 0.000004 -0.000001 1.941754 5.893130 -1.062392 -0.000007 0.000001 -3.010710 -5.000187 -7.999938 0.000023 -1.185675 68.226971 2.457871 -56.529405 113.548289 52.458489 0.000003 0.000001 -0.000000 8.154143 9.734273 -0.015623 -0.000001 -0.000009 2.999990 -5.000215 7.998864 -0.000127 2.931428 -178.296242 3.076072 -179.999991 0.000005 -1.146005 174.382625 -2.573598 -0.486045 -0.000003 0.000001 0.073257 69.367804 6.900674 2.089939 25.456957 -7.355615 0.000001 4.928472 175.274457 -2.190038 -0.000005 -0.000005 -1.179569 -7.635003 2.123682 0.324232 -0.000008 -0.000001 -0.130027 70.012820 -6.872702 -2.107861 25.456957 7.355614 -0.000000 
52.691700 -12.332016 96.744896 -4.234969 0.034356 4.025023 -1.356219 0.433725 -0.410803 1.293090 0.872905 -0.811153 2.938175 0.863117 -0.821546 9.220780 37.042664 -26.464178 19.198825 -39.557003 -19.298524 -15.397748 -35.157507 -17.552874 -134.142866 -141.984169 -101.086322 -0.000008 0.000004 -0.000001 1.527941 5.342872 -1.074776 -0.000006 0.000001 -3.015742 -5.000186 -7.999938 0.000025 -1.103687 68.252141 2.368967 -56.630724 113.515722 52.511737 0.000001 0.000001 -0.000000 8.082133 9.718838 -0.008729 -0.000004 -0.000008 2.999990 -5.000211 7.998864 -0.000127 2.926039 -178.293223 3.075885 -179.999991 0.000005 -1.147002 174.380713 -2.571605 -0.486934 -0.000004 0.000001 0.073462 69.365373 6.900669 2.089890 25.456955 -7.355615 0.000000 4.903533 175.276273 -2.186212 -0.000005 -0.000004 -1.179630 -7.658642 2.124050 0.325437 -0.000008 -0.000001 -0.129995 70.014288 -6.872676 -2.107964 25.456953 7.355612 0.000000 
